<svg width="24" height="24" viewBox="0 0 24 24" fill="none" xmlns="http://www.w3.org/2000/svg">
<path d="M21.9844 2.39218C21.3124 1.72018 20.1604 1.72018 19.2004 2.39218C15.7444 5.17618 12.3844 8.82418 9.12043 13.4322C8.16043 13.2402 7.10443 13.4322 6.24043 14.0082C5.76043 14.2962 5.28043 14.7762 4.99243 15.2562C4.99243 15.2562 4.99243 15.2562 4.89643 15.3522C4.22443 16.3122 4.03243 17.2722 3.93643 18.0402C3.74443 19.2882 3.64843 19.9602 2.01643 20.6322C1.72843 20.7282 1.44043 21.1122 1.44043 21.4962C1.44043 21.8802 1.63243 22.2642 2.01643 22.3602C3.16843 22.8402 4.32043 23.0322 5.47243 23.0322C8.44843 23.0322 11.2324 21.5922 12.2884 19.2882C12.8644 18.0402 12.7684 16.5042 12.0004 15.3522C11.7124 14.8722 11.3284 14.4882 10.9444 14.2002C14.0164 9.9762 17.1844 6.52018 20.3524 4.02418C20.5444 3.92818 20.6404 3.83218 20.6404 3.83218C20.6404 3.83218 20.6404 4.02418 20.5444 4.21618C18.5284 7.48018 15.8404 10.7442 12.6724 13.8162C12.2884 14.2002 12.2884 14.7762 12.6724 15.1602C13.0564 15.5442 13.6324 15.5442 14.0164 15.1602C17.3764 11.9922 20.0644 8.63218 22.1764 5.17618C22.3684 4.79218 22.5604 4.31218 22.5604 3.83218C22.5604 3.25618 22.3684 2.77618 21.9844 2.39218ZM10.4644 18.5202C9.69643 20.3442 7.20043 21.3042 4.80043 21.1122C5.56843 20.2482 5.76043 19.1922 5.95243 18.3282C6.04843 17.6562 6.14443 17.0802 6.52843 16.5042C6.62443 16.4082 6.62443 16.4082 6.62443 16.3122C6.81643 16.0242 7.10443 15.7362 7.39243 15.5442C7.87243 15.2562 8.44843 15.1602 9.02443 15.2562C9.50443 15.4482 10.0804 15.8322 10.3684 16.3122C10.7524 16.9842 10.8484 17.8482 10.4644 18.5202Z" fill="#F8F8F8" fill-opacity="0.52"/>
</svg>
